
<svg width="585" height="70" viewBox="0 0 585 70" fill="none" xmlns="http://www.w3.org/2000/svg">
<path d="M0.539062 0.878906H20.8594C16.3828 2.49609 14.1445 3.97266 14.1445 5.30859C14.1445 5.47266 14.168 5.625 14.2148 5.76562L14.3203 6.08203L28.1367 40.2891L34.1836 24.8906L25.0781 0.878906H32.1797L37.6992 15.8203L43.5 0.878906H47.6133L39.7734 20.8125L47.5078 40.8164L60.6562 6.08203L60.7266 5.80078C60.7734 5.66016 60.7969 5.51953 60.7969 5.37891V5.34375C60.7969 4.00781 58.5703 2.51953 54.1172 0.878906H71.4492C68.5664 1.44141 66.375 3.08203 64.875 5.80078L64.7695 6.08203L45.9609 55.4062L36.2578 29.7773L26.3789 55.4062L7.21875 6.08203L7.18359 5.97656L7.07812 5.66016C5.57812 3.03516 3.39844 1.44141 0.539062 0.878906ZM70.4297 20.1797C72.1172 19.4297 75.7031 18.0938 81.1875 16.1719C82.0547 15.8672 83.0156 15.5625 84.0703 15.2578V48.7969L84.1406 49.1133C85.4062 51.7148 87.6094 53.3438 90.75 54H70.4297C73.3359 53.4375 75.5391 51.7969 77.0391 49.0781L77.1094 48.7969V23.0625C77.1094 22.4766 76.957 22.0664 76.6523 21.832C76.1602 21.4336 75.375 21.1289 74.2969 20.918C72 20.4258 70.7109 20.1797 70.4297 20.1797ZM77.3555 7.94531C76.4648 7.03125 76.0195 5.92969 76.0195 4.64062C76.0195 3.35156 76.4648 2.26172 77.3555 1.37109C78.2461 0.457031 79.3242 0 80.5898 0C81.8555 0 82.9336 0.457031 83.8242 1.37109C84.7148 2.26172 85.1602 3.35156 85.1602 4.64062C85.1602 5.92969 84.7148 7.03125 83.8242 7.94531C82.9336 8.83594 81.8555 9.28125 80.5898 9.28125C79.3242 9.28125 78.2461 8.83594 77.3555 7.94531ZM92.1562 54L115.008 19.7227H103.828L103.336 19.7578C101.672 19.9219 98.4258 22.4883 93.5977 27.457L100.137 16.1367H124.816L102.738 50.4141H116.977L117.469 50.3789C119.133 50.2148 122.379 47.6484 127.207 42.6797L120.668 54H92.1562ZM138.738 34.9453C138.738 40.2188 139.324 44.1094 140.496 46.6172C142.02 49.875 144.105 51.5039 146.754 51.5039C147.105 51.5039 147.457 51.5039 147.809 51.5039C149.754 51.5039 151.629 50.6016 153.434 48.7969L153.785 48.2695C154.137 47.8945 154.312 47.1094 154.312 45.9141V24.2227C154.312 23.0273 154.148 22.2422 153.82 21.8672L153.469 21.3398C151.664 19.5352 149.789 18.6328 147.844 18.6328C147.492 18.6328 147.141 18.6328 146.789 18.6328C144.141 18.6328 142.055 20.2617 140.531 23.5195C139.336 26.0742 138.738 29.8828 138.738 34.9453ZM131.109 34.6289C131.109 31.1602 131.801 27.9375 133.184 24.9609C134.566 21.9609 136.465 19.6055 138.879 17.8945C141.363 16.1367 144.152 15.2578 147.246 15.2578C149.941 15.2578 153.258 15.9492 157.195 17.332C162.844 19.3242 166.43 20.6602 167.953 21.3398C167.438 21.3633 166.078 21.6211 163.875 22.1133C162.938 22.3242 162.223 22.6172 161.73 22.9922C161.426 23.2266 161.273 23.6367 161.273 24.2227V45.9141C161.273 46.5234 161.414 46.9336 161.695 47.1445C162.188 47.5195 162.902 47.8125 163.84 48.0234C166.043 48.5156 167.402 48.7734 167.918 48.7969C166.395 49.4766 162.809 50.8125 157.16 52.8047C153.223 54.1875 149.906 54.8789 147.211 54.8789C144.117 54.8789 141.328 54 138.844 52.2422C136.43 50.5312 134.531 48.1758 133.148 45.1758C131.789 42.2461 131.109 38.7305 131.109 34.6289ZM170.766 54C173.672 53.4375 175.875 51.7969 177.375 49.0781L177.445 48.7969V24.2227C177.445 23.6602 177.293 23.25 176.988 22.9922C176.566 22.6172 175.852 22.3242 174.844 22.1133C172.734 21.6445 171.375 21.3867 170.766 21.3398C172.383 20.6133 175.969 19.2773 181.523 17.332C185.461 15.9492 188.859 15.2578 191.719 15.2578C191.812 15.2578 191.906 15.2578 192 15.2578C195.797 15.2578 199.102 16.5703 201.914 19.1953C204.258 21.9141 205.43 24.6445 205.43 27.3867C205.43 27.457 205.43 27.5156 205.43 27.5625C205.43 28.8516 204.984 29.9766 204.094 30.9375C203.227 31.875 202.148 32.3438 200.859 32.3438C199.57 32.3438 198.492 31.8984 197.625 31.0078C196.734 30.0938 196.289 29.0273 196.289 27.8086C196.289 27.7617 196.289 27.7266 196.289 27.7031C196.289 26.3672 196.734 25.2656 197.625 24.3984C198.492 23.5547 199.5 23.1094 200.648 23.0625C200.484 22.1016 199.336 21 197.203 19.7578C196.148 19.1484 194.777 18.8438 193.09 18.8438C192.809 18.8438 192.527 18.8555 192.246 18.8789C189.691 19.0898 187.582 19.7812 185.918 20.9531C185.801 21.0234 185.461 21.3281 184.898 21.8672C184.57 22.1719 184.406 22.957 184.406 24.2227V48.7969L184.477 49.1133C185.742 51.7148 187.945 53.3438 191.086 54H170.766ZM216.961 34.9102C216.961 40.1836 217.547 44.0742 218.719 46.582C220.242 49.8398 222.504 51.4688 225.504 51.4688C227.777 51.4688 229.828 50.5664 231.656 48.7617L232.008 48.2344C232.336 47.8125 232.5 47.0273 232.5 45.8789V24.8203C232.453 24.0703 232.113 23.2266 231.48 22.2891C230.238 20.4375 228.387 19.5117 225.926 19.5117H225.82C222.938 19.5352 220.734 20.8008 219.211 23.3086C217.711 25.8633 216.961 29.7305 216.961 34.9102ZM209.297 35.4727C209.297 31.6055 210 28.1484 211.406 25.1016C212.836 22.0078 214.723 19.5938 217.066 17.8594C219.434 16.1016 222.047 15.2227 224.906 15.2227C227.648 15.2227 230.18 16.043 232.5 17.6836V7.80469C232.5 7.28906 232.348 6.87891 232.043 6.57422C231.762 6.29297 230.988 6.02344 229.723 5.76562C228.434 5.48438 227.133 5.20312 225.82 4.92188C227.297 4.26562 230.883 2.92969 236.578 0.914062C237.305 0.65625 238.266 0.351562 239.461 0V45.8789C239.484 46.4414 239.637 46.8516 239.918 47.1094C240.293 47.4375 241.008 47.7305 242.062 47.9883C243.984 48.457 245.344 48.7148 246.141 48.7617C244.711 49.418 241.125 50.7539 235.383 52.7695C231.445 54.1523 228.047 54.8438 225.188 54.8438C225.094 54.8438 225 54.8438 224.906 54.8438C222.164 54.8438 219.551 53.9648 217.066 52.207C214.676 50.5195 212.777 48.1641 211.371 45.1406C209.988 42.1641 209.297 38.9414 209.297 35.4727ZM248.953 20.1797C250.641 19.4297 254.227 18.0938 259.711 16.1719C260.578 15.8672 261.539 15.5625 262.594 15.2578V48.7969L262.664 49.1133C263.93 51.7148 266.133 53.3438 269.273 54H248.953C251.859 53.4375 254.062 51.7969 255.562 49.0781L255.633 48.7969V23.0625C255.633 22.4766 255.48 22.0664 255.176 21.832C254.684 21.4336 253.898 21.1289 252.82 20.918C250.523 20.4258 249.234 20.1797 248.953 20.1797ZM255.879 7.94531C254.988 7.03125 254.543 5.92969 254.543 4.64062C254.543 3.35156 254.988 2.26172 255.879 1.37109C256.77 0.457031 257.848 0 259.113 0C260.379 0 261.457 0.457031 262.348 1.37109C263.238 2.26172 263.684 3.35156 263.684 4.64062C263.684 5.92969 263.238 7.03125 262.348 7.94531C261.457 8.83594 260.379 9.28125 259.113 9.28125C257.848 9.28125 256.77 8.83594 255.879 7.94531ZM272.086 54C274.992 53.4375 277.195 51.7969 278.695 49.0781L278.766 48.7969V23.0625C278.766 22.4766 278.613 22.0664 278.309 21.832C277.84 21.457 277.125 21.1641 276.164 20.9531C274.031 20.4844 272.672 20.2266 272.086 20.1797C272.883 19.8281 276.469 18.4922 282.844 16.1719C283.828 15.8203 284.789 15.5156 285.727 15.2578V17.9648L285.832 17.8945C288.176 16.1367 290.789 15.2578 293.672 15.2578C296.508 15.2578 299.121 16.1367 301.512 17.8945C303.879 19.6289 305.766 22.043 307.172 25.1367C308.578 28.2305 309.281 31.5469 309.281 35.0859V35.2969V47.0742C309.281 47.6602 309.434 48.0703 309.738 48.3047C310.207 48.6797 310.922 48.9727 311.883 49.1836C314.016 49.6523 315.375 49.9102 315.961 49.957C314.648 50.543 311.062 51.8789 305.203 53.9648C304.219 54.3164 303.258 54.6211 302.32 54.8789V35.2266V35.0859C302.32 29.7422 301.301 25.7812 299.262 23.2031C297.34 20.7656 295.031 19.5469 292.336 19.5469C292.289 19.5469 292.242 19.5469 292.195 19.5469C289.219 19.5469 287.062 20.625 285.727 22.7812V48.7969L285.797 49.1133C287.062 51.7148 289.266 53.3438 292.406 54H272.086ZM319.828 34.6289C319.828 31.1602 320.52 27.9375 321.902 24.9609C323.309 21.9375 325.207 19.582 327.598 17.8945C330.082 16.1367 332.953 15.2578 336.211 15.2578C338.742 15.2578 341.977 15.9492 345.914 17.332C351.727 19.3711 355.312 20.707 356.672 21.3398C356.133 21.3867 354.773 21.6445 352.594 22.1133C351.656 22.3242 350.941 22.6172 350.449 22.9922C350.145 23.2266 349.992 23.6367 349.992 24.2227V54C349.688 59.2031 347.719 63.0938 344.086 65.6719C340.711 68.0625 337.289 69.2578 333.82 69.2578C333.539 69.2578 333.258 69.2461 332.977 69.2227C329.273 68.9414 326.473 67.8047 324.574 65.8125C323.613 64.8047 323.133 63.6914 323.133 62.4727C323.133 61.1367 323.555 60.0469 324.398 59.2031C325.289 58.3125 326.379 57.8672 327.668 57.8672C328.934 57.8672 330.023 58.3711 330.938 59.3789C331.852 60.3867 332.309 61.5234 332.309 62.7891C332.309 63.8203 331.91 64.7578 331.113 65.6016C331.605 65.8828 332.273 66.0234 333.117 66.0234C333.961 66.0234 334.969 65.8828 336.141 65.6016C338.391 65.0625 340.031 64.0781 341.062 62.6484C342.375 60.75 343.031 58.1016 343.031 54.7031C343.031 54.4922 343.031 54.2578 343.031 54V52.418C340.711 54.0586 338.18 54.8789 335.438 54.8789C332.578 54.8789 329.965 54 327.598 52.2422C325.254 50.5078 323.367 48.0938 321.938 45C320.531 41.9531 319.828 38.4961 319.828 34.6289ZM327.492 35.1914C327.492 40.3711 328.242 44.2383 329.742 46.793C331.289 49.3242 333.586 50.5898 336.633 50.5898C338.977 50.5898 340.77 49.6641 342.012 47.8125C342.645 46.875 342.984 46.0312 343.031 45.2812V44.9648V24.2227C343.031 23.0273 342.867 22.2422 342.539 21.8672L342.188 21.3398C340.359 19.5352 338.285 18.6328 335.965 18.6328C335.801 18.6328 335.648 18.6328 335.508 18.6328C332.812 18.7266 330.727 20.3555 329.25 23.5195C328.078 26.0273 327.492 29.918 327.492 35.1914ZM376.711 0.878906H397.031C392.555 2.49609 390.316 3.97266 390.316 5.30859C390.316 5.47266 390.34 5.625 390.387 5.76562L390.492 6.08203L404.309 40.2891L410.355 24.8906L401.25 0.878906H408.352L413.871 15.8203L419.672 0.878906H423.785L415.945 20.8125L423.68 40.8164L436.828 6.08203L436.898 5.80078C436.945 5.66016 436.969 5.51953 436.969 5.37891V5.34375C436.969 4.00781 434.742 2.51953 430.289 0.878906H447.621C444.738 1.44141 442.547 3.08203 441.047 5.80078L440.941 6.08203L422.133 55.4062L412.43 29.7773L402.551 55.4062L383.391 6.08203L383.355 5.97656L383.25 5.66016C381.75 3.03516 379.57 1.44141 376.711 0.878906ZM456.727 34.9453C456.727 40.1719 457.312 44.0625 458.484 46.6172C459.984 49.875 462.152 51.5039 464.988 51.5039C467.52 51.5039 469.523 49.6641 471 45.9844C472.219 42.9375 472.852 39.3516 472.898 35.2266V35.0859C472.898 30.2109 471.961 26.2734 470.086 23.2734C468.539 20.7891 466.723 19.5469 464.637 19.5469C464.613 19.5469 464.578 19.5469 464.531 19.5469C462.305 19.5469 460.453 20.8125 458.977 23.3438C457.477 25.8984 456.727 29.7656 456.727 34.9453ZM449.062 35.5078C449.062 31.6406 449.766 28.1836 451.172 25.1367C452.602 22.043 454.488 19.6289 456.832 17.8945C459.199 16.1367 461.812 15.2578 464.672 15.2578C467.508 15.2578 470.121 16.1367 472.512 17.8945C474.879 19.6289 476.766 22.043 478.172 25.1367C479.578 28.2305 480.281 31.5469 480.281 35.0859C480.281 38.6484 479.578 41.9531 478.172 45C476.766 48.0469 474.879 50.4609 472.512 52.2422C470.168 54 467.555 54.8789 464.672 54.8789C461.93 54.8789 459.316 54 456.832 52.2422C454.441 50.5547 452.543 48.1992 451.137 45.1758C449.754 42.1992 449.062 38.9766 449.062 35.5078ZM485.555 54C488.461 53.4375 490.664 51.7969 492.164 49.0781L492.234 48.7969V24.2227C492.234 23.6602 492.082 23.25 491.777 22.9922C491.355 22.6172 490.641 22.3242 489.633 22.1133C487.523 21.6445 486.164 21.3867 485.555 21.3398C487.172 20.6133 490.758 19.2773 496.312 17.332C500.25 15.9492 503.648 15.2578 506.508 15.2578C506.602 15.2578 506.695 15.2578 506.789 15.2578C510.586 15.2578 513.891 16.5703 516.703 19.1953C519.047 21.9141 520.219 24.6445 520.219 27.3867C520.219 27.457 520.219 27.5156 520.219 27.5625C520.219 28.8516 519.773 29.9766 518.883 30.9375C518.016 31.875 516.938 32.3438 515.648 32.3438C514.359 32.3438 513.281 31.8984 512.414 31.0078C511.523 30.0938 511.078 29.0273 511.078 27.8086C511.078 27.7617 511.078 27.7266 511.078 27.7031C511.078 26.3672 511.523 25.2656 512.414 24.3984C513.281 23.5547 514.289 23.1094 515.438 23.0625C515.273 22.1016 514.125 21 511.992 19.7578C510.938 19.1484 509.566 18.8438 507.879 18.8438C507.598 18.8438 507.316 18.8555 507.035 18.8789C504.48 19.0898 502.371 19.7812 500.707 20.9531C500.59 21.0234 500.25 21.3281 499.688 21.8672C499.359 22.1719 499.195 22.957 499.195 24.2227V48.7969L499.266 49.1133C500.531 51.7148 502.734 53.3438 505.875 54H485.555ZM521.625 4.92188C522.82 4.40625 526.406 3.07031 532.383 0.914062C533.273 0.585938 534.234 0.28125 535.266 0V48.7969L535.336 49.1133C536.602 51.7148 538.805 53.3438 541.945 54H521.625C524.531 53.4375 526.734 51.7969 528.234 49.0781L528.305 48.7969V7.80469C528.305 7.21875 528.152 6.80859 527.848 6.57422C527.402 6.19922 526.664 5.90625 525.633 5.69531C523.172 5.20312 521.836 4.94531 521.625 4.92188ZM554.883 34.9102C554.883 40.1836 555.469 44.0742 556.641 46.582C558.164 49.8398 560.426 51.4688 563.426 51.4688C565.699 51.4688 567.75 50.5664 569.578 48.7617L569.93 48.2344C570.258 47.8125 570.422 47.0273 570.422 45.8789V24.8203C570.375 24.0703 570.035 23.2266 569.402 22.2891C568.16 20.4375 566.309 19.5117 563.848 19.5117H563.742C560.859 19.5352 558.656 20.8008 557.133 23.3086C555.633 25.8633 554.883 29.7305 554.883 34.9102ZM547.219 35.4727C547.219 31.6055 547.922 28.1484 549.328 25.1016C550.758 22.0078 552.645 19.5938 554.988 17.8594C557.355 16.1016 559.969 15.2227 562.828 15.2227C565.57 15.2227 568.102 16.043 570.422 17.6836V7.80469C570.422 7.28906 570.27 6.87891 569.965 6.57422C569.684 6.29297 568.91 6.02344 567.645 5.76562C566.355 5.48438 565.055 5.20312 563.742 4.92188C565.219 4.26562 568.805 2.92969 574.5 0.914062C575.227 0.65625 576.188 0.351562 577.383 0V45.8789C577.406 46.4414 577.559 46.8516 577.84 47.1094C578.215 47.4375 578.93 47.7305 579.984 47.9883C581.906 48.457 583.266 48.7148 584.062 48.7617C582.633 49.418 579.047 50.7539 573.305 52.7695C569.367 54.1523 565.969 54.8438 563.109 54.8438C563.016 54.8438 562.922 54.8438 562.828 54.8438C560.086 54.8438 557.473 53.9648 554.988 52.207C552.598 50.5195 550.699 48.1641 549.293 45.1406C547.91 42.1641 547.219 38.9414 547.219 35.4727Z" fill="black"/>
</svg>
